<svg xmlns="http://www.w3.org/2000/svg" width="1280" height="720" viewBox="0 0 1280 720" role="img" aria-labelledby="title desc">
  <title id="title">智答 AI 产品预览插图</title>
  <desc id="desc">展示智答 AI 的侧边栏、聊天消息、设置面板和圆角现代界面风格的静态插图。</desc>
  <defs>
    <linearGradient id="canvas" x1="0" y1="0" x2="1" y2="1">
      <stop offset="0" stop-color="#f8fafc"/>
      <stop offset="0.48" stop-color="#e0f2fe"/>
      <stop offset="1" stop-color="#fef3c7"/>
    </linearGradient>
    <linearGradient id="accent" x1="0" y1="0" x2="1" y2="0">
      <stop offset="0" stop-color="#2563eb"/>
      <stop offset="0.55" stop-color="#7c3aed"/>
      <stop offset="1" stop-color="#f97316"/>
    </linearGradient>
    <filter id="shadow" x="-10%" y="-10%" width="120%" height="130%">
      <feDropShadow dx="0" dy="18" stdDeviation="26" flood-color="#0f172a" flood-opacity="0.16"/>
    </filter>
  </defs>
  <rect width="1280" height="720" rx="36" fill="url(#canvas)"/>
  <circle cx="92" cy="112" r="54" fill="#bfdbfe" opacity="0.72"/>
  <circle cx="1158" cy="598" r="70" fill="#fed7aa" opacity="0.72"/>
  <g transform="translate(72 56)" filter="url(#shadow)">
    <rect width="1136" height="608" rx="34" fill="#ffffff"/>
    <rect width="272" height="608" rx="34" fill="#111827"/>
    <path d="M272 0h38v608h-38z" fill="#111827"/>
    <g transform="translate(34 34)">
      <rect width="56" height="56" rx="18" fill="url(#accent)"/>
      <path d="M17 26c0-6.1 4.9-11 11-11s11 4.9 11 11v8c0 2.2-1.8 4-4 4h-8l-8 8v-8h-2c-2.2 0-4-1.8-4-4v-8z" fill="#ffffff"/>
      <text x="72" y="25" fill="#ffffff" font-family="Inter, ui-sans-serif, system-ui, sans-serif" font-size="20" font-weight="800">智答 AI</text>
      <text x="72" y="50" fill="#94a3b8" font-family="Inter, ui-sans-serif, system-ui, sans-serif" font-size="13">同源代理模式</text>
    </g>
    <g transform="translate(34 124)">
      <rect width="204" height="42" rx="21" fill="#2563eb"/>
      <text x="54" y="27" fill="#ffffff" font-family="Inter, ui-sans-serif, system-ui, sans-serif" font-size="14" font-weight="800">新建对话</text>
      <rect y="68" width="204" height="42" rx="21" fill="#1f2937"/>
      <rect x="20" y="84" width="120" height="10" rx="5" fill="#94a3b8"/>
      <rect y="124" width="204" height="64" rx="22" fill="#253045"/>
      <rect x="20" y="145" width="138" height="10" rx="5" fill="#e5e7eb"/>
      <rect x="20" y="166" width="76" height="8" rx="4" fill="#94a3b8"/>
      <rect y="204" width="204" height="64" rx="22" fill="#1f2937"/>
      <rect x="20" y="225" width="112" height="10" rx="5" fill="#cbd5e1"/>
      <rect x="20" y="246" width="92" height="8" rx="4" fill="#64748b"/>
      <rect y="284" width="204" height="64" rx="22" fill="#1f2937"/>
      <rect x="20" y="305" width="152" height="10" rx="5" fill="#cbd5e1"/>
      <rect x="20" y="326" width="58" height="8" rx="4" fill="#64748b"/>
    </g>
    <g transform="translate(324 34)">
      <rect width="746" height="54" rx="27" fill="#f1f5f9"/>
      <rect x="24" y="17" width="164" height="20" rx="10" fill="#e0e7ff"/>
      <circle cx="704" cy="27" r="16" fill="#ffffff"/>
      <circle cx="660" cy="27" r="16" fill="#ffffff"/>
      <rect y="86" width="392" height="70" rx="28" fill="#f8fafc" stroke="#e2e8f0"/>
      <rect x="32" y="111" width="268" height="12" rx="6" fill="#64748b"/>
      <rect x="32" y="133" width="180" height="10" rx="5" fill="#94a3b8"/>
      <rect x="252" y="184" width="494" height="86" rx="32" fill="url(#accent)"/>
      <rect x="292" y="214" width="306" height="12" rx="6" fill="#ffffff" opacity="0.88"/>
      <rect x="292" y="240" width="178" height="10" rx="5" fill="#ffffff" opacity="0.66"/>
      <rect y="298" width="472" height="100" rx="30" fill="#f8fafc" stroke="#e2e8f0"/>
      <rect x="32" y="326" width="302" height="12" rx="6" fill="#475569"/>
      <rect x="32" y="352" width="378" height="10" rx="5" fill="#94a3b8"/>
      <rect x="32" y="376" width="230" height="10" rx="5" fill="#94a3b8"/>
      <rect y="446" width="746" height="86" rx="30" fill="#f8fafc" stroke="#e2e8f0"/>
      <rect x="28" y="474" width="430" height="14" rx="7" fill="#cbd5e1"/>
      <rect x="624" y="462" width="82" height="54" rx="27" fill="#2563eb"/>
      <path d="M655 489h22M667 478l12 11-12 11" fill="none" stroke="#ffffff" stroke-width="5" stroke-linecap="round" stroke-linejoin="round"/>
    </g>
    <g transform="translate(928 126)">
      <rect width="224" height="334" rx="30" fill="#f8fafc" stroke="#e2e8f0"/>
      <text x="28" y="42" fill="#0f172a" font-family="Inter, ui-sans-serif, system-ui, sans-serif" font-size="17" font-weight="800">设置</text>
      <rect x="28" y="72" width="168" height="34" rx="17" fill="#ffffff" stroke="#dbeafe"/>
      <rect x="44" y="85" width="96" height="8" rx="4" fill="#94a3b8"/>
      <rect x="28" y="126" width="168" height="34" rx="17" fill="#ffffff" stroke="#dbeafe"/>
      <rect x="44" y="139" width="124" height="8" rx="4" fill="#94a3b8"/>
      <rect x="28" y="180" width="168" height="34" rx="17" fill="#ffffff" stroke="#dbeafe"/>
      <rect x="44" y="193" width="74" height="8" rx="4" fill="#94a3b8"/>
      <rect x="28" y="246" width="168" height="48" rx="24" fill="#22c55e"/>
      <text x="63" y="276" fill="#ffffff" font-family="Inter, ui-sans-serif, system-ui, sans-serif" font-size="14" font-weight="800">保存配置</text>
    </g>
  </g>
  <text x="640" y="696" fill="#64748b" text-anchor="middle" font-family="Inter, ui-sans-serif, system-ui, sans-serif" font-size="15">产品预览插图，不是真实截图</text>
</svg>
